HIERARCHY
ROOT Hips
{
 OFFSET 0.000000 0.000000 0.000000
 CHANNELS 6 Xposition Yposition Zposition Yrotation Xrotation Zrotation
 JOINT Chest
 {
  OFFSET 0.000000 9.585900 0.002600
  CHANNELS 3 Yrotation Xrotation Zrotation
  JOINT Chest2
  {
   OFFSET 0.000000 9.601200 -0.005300
   CHANNELS 3 Yrotation Xrotation Zrotation
   JOINT Chest3
   {
    OFFSET 0.000000 9.561800 0.000000
    CHANNELS 3 Yrotation Xrotation Zrotation
    JOINT Chest4
    {
     OFFSET 0.000000 9.552100 0.000000
     CHANNELS 3 Yrotation Xrotation Zrotation
     JOINT Neck
     {
      OFFSET 0.000000 14.453000 0.000000
      CHANNELS 3 Yrotation Xrotation Zrotation
      JOINT Head
      {
       OFFSET 0.000000 8.936500 -0.011300
       CHANNELS 3 Yrotation Xrotation Zrotation
       End Site
       {
        OFFSET 0.000000 17.073600 -0.006000
       }
      }
     }
     JOINT RightCollar
     {
      OFFSET -2.921100 9.558500 0.000000
      CHANNELS 3 Yrotation Xrotation Zrotation
      JOINT RightShoulder
      {
       OFFSET -13.519700 0.000000 0.000000
       CHANNELS 3 Yrotation Xrotation Zrotation
       JOINT RightElbow
       {
        OFFSET 0.000000 -29.696600 0.000000
        CHANNELS 3 Yrotation Xrotation Zrotation
        JOINT RightWrist
        {
         OFFSET 0.000000 -24.004700 0.000000
         CHANNELS 3 Yrotation Xrotation Zrotation
         End Site
         {
          OFFSET 0.000000 -17.728500 0.000000
         }
        }
       }
      }
     }
     JOINT LeftCollar
     {
      OFFSET 2.921100 9.558500 0.000000
      CHANNELS 3 Yrotation Xrotation Zrotation
      JOINT LeftShoulder
      {
       OFFSET 13.519700 0.000000 0.000000
       CHANNELS 3 Yrotation Xrotation Zrotation
       JOINT LeftElbow
       {
        OFFSET 0.000000 -29.696600 0.000000
        CHANNELS 3 Yrotation Xrotation Zrotation
        JOINT LeftWrist
        {
         OFFSET 0.000000 -24.004700 0.000000
         CHANNELS 3 Yrotation Xrotation Zrotation
         End Site
         {
          OFFSET 0.000000 -17.728500 0.000000
         }
        }
       }
      }
     }
    }
   }
  }
 }
 JOINT RightHip
 {
  OFFSET -7.771700 -0.012900 -0.001300
  CHANNELS 3 Yrotation Xrotation Zrotation
  JOINT RightKnee
  {
   OFFSET 0.000000 -40.869800 0.001200
   CHANNELS 3 Yrotation Xrotation Zrotation
   JOINT RightAnkle
   {
    OFFSET 0.000000 -39.717900 0.002100
    CHANNELS 3 Yrotation Xrotation Zrotation
    JOINT RightToe
    {
     OFFSET 0.000000 -4.965400 11.033500
     CHANNELS 3 Yrotation Xrotation Zrotation
     End Site
     {
      OFFSET 0.000000 -1.423100 5.872300
     }
    }
   }
  }
 }
 JOINT LeftHip
 {
  OFFSET 7.771700 -0.012900 -0.001300
  CHANNELS 3 Yrotation Xrotation Zrotation
  JOINT LeftKnee
  {
   OFFSET 0.000000 -40.869800 0.001200
   CHANNELS 3 Yrotation Xrotation Zrotation
   JOINT LeftAnkle
   {
    OFFSET 0.000000 -39.717900 0.002100
    CHANNELS 3 Yrotation Xrotation Zrotation
    JOINT LeftToe
    {
     OFFSET 0.000000 -4.965400 11.033500
     CHANNELS 3 Yrotation Xrotation Zrotation
     End Site
     {
      OFFSET 0.000000 -1.423100 5.872300
     }
    }
   }
  }
 }
}
MOTION
Frames: 15
Frame Time: 0.008333
-118.410785 57.940667 102.059090 175.857244 -32.317012 -1.189809 1.639071 21.588145 3.186981 0.149012 2.937340 0.382100 0.249402 4.782864 0.622908 1.281071 18.343432 2.577143 0.012073 12.595824 -3.176479 1.324848 -12.341445 -6.059436 4.075845 -4.101019 -1.138176 17.246601 -20.550019 -21.265222 121.203331 -74.926176 -70.778284 11.924540 -17.866773 -41.467848 -7.684690 -4.829017 -4.462112 -1.283807 -9.972261 -1.850468 36.417604 -42.875322 -70.364248 7.256297 -12.780483 27.540151 2.871867 -43.109013 -0.712064 -11.867997 66.751466 -14.210421 7.078929 24.088033 5.027044 -0.227323 -16.284522 1.527769 -5.829829 -40.429083 2.994781 25.160444 64.725388 22.734500 -16.749492 5.927781 -2.550286 -0.019491 -0.044869 -0.008451
-118.410917 57.941093 102.058310 175.858627 -32.318288 -1.188244 1.633556 21.593545 3.179791 0.152105 2.937241 0.384609 0.249449 4.783433 0.622982 1.281182 18.344406 2.577370 0.007815 12.590315 -3.187643 1.324784 -12.346593 -6.064082 4.071078 -4.103080 -1.135428 17.248733 -20.555012 -21.264594 121.202804 -74.926427 -70.791157 11.917428 -17.868300 -41.445484 -7.686994 -4.832629 -4.460763 -1.280978 -9.972480 -1.847799 36.418386 -42.868514 -70.366123 7.254670 -12.783253 27.538572 2.855185 -43.104830 -0.703121 -11.870809 66.750239 -14.226410 7.087759 24.077828 5.029569 -0.229918 -16.277939 1.527667 -5.826699 -40.427699 2.992026 25.160972 64.726647 22.732965 -16.754638 5.926322 -2.545858 -0.021955 -0.044749 -0.010052
-118.409373 57.941529 102.057680 175.857160 -32.318753 -1.193530 1.635562 21.594948 3.184224 0.147231 2.940935 0.380159 0.249794 4.783917 0.622936 1.284003 18.352753 2.574014 0.003042 12.575220 -3.202331 1.326429 -12.358218 -6.077879 4.071410 -4.115241 -1.126806 17.250977 -20.555636 -21.263922 121.193866 -74.926748 -70.784031 11.913004 -17.869934 -41.443985 -7.686840 -4.844782 -4.451635 -1.276352 -9.969958 -1.847041 36.415584 -42.864298 -70.370535 7.264765 -12.783789 27.547079 2.837491 -43.099821 -0.684023 -11.875179 66.746179 -14.237244 7.090297 24.068472 5.024963 -0.232011 -16.270520 1.529696 -5.828025 -40.425931 3.000512 25.148792 64.729981 22.719871 -16.751383 5.921271 -2.540993 -0.025913 -0.042024 -0.011676
-118.408281 57.941890 102.057081 175.857007 -32.318431 -1.194572 1.634605 21.596367 3.182371 0.147643 2.942083 0.380018 0.253836 4.789165 0.622228 1.286981 18.351441 2.574990 -0.002223 12.567498 -3.205905 1.322761 -12.374887 -6.104594 4.065728 -4.121708 -1.122043 17.254637 -20.555166 -21.262002 121.174283 -74.928049 -70.767963 11.915816 -17.870696 -41.445793 -7.699596 -4.841624 -4.455673 -1.270724 -9.975067 -1.838264 36.426815 -42.856591 -70.373346 7.259702 -12.782661 27.549208 2.832486 -43.098229 -0.676407 -11.890460 66.743982 -14.254396 7.085051 24.064534 5.020590 -0.228388 -16.267331 1.530570 -5.818225 -40.430990 2.994621 25.145747 64.734653 22.725135 -16.747912 5.925661 -2.539057 -0.027542 -0.047352 -0.012465
-118.407269 57.942721 102.055687 175.861406 -32.324004 -1.194592 1.639209 21.603703 3.183155 0.148226 2.943965 0.379849 0.246172 4.786286 0.622867 1.290706 18.354687 2.574454 -0.011836 12.561286 -3.217677 1.296497 -12.414969 -6.150037 4.061729 -4.119641 -1.117340 17.262576 -20.554160 -21.264099 121.154648 -74.926729 -70.760370 11.920152 -17.872454 -41.445337 -7.701453 -4.837553 -4.459687 -1.274740 -9.977277 -1.834319 36.430367 -42.859702 -70.374938 7.261070 -12.785023 27.554713 2.834497 -43.090639 -0.675419 -11.912600 66.745923 -14.272774 7.071405 24.057402 5.013599 -0.223930 -16.263997 1.531589 -5.814274 -40.427637 2.988157 25.145800 64.740296 22.727893 -16.755596 5.921707 -2.535781 -0.033544 -0.048230 -0.014570
-118.404754 57.943440 102.054581 175.867334 -32.329562 -1.201814 1.640298 21.608959 3.187551 0.148818 2.944755 0.379942 0.247093 4.788199 0.625026 1.287285 18.353251 2.574527 -0.016726 12.555438 -3.230525 1.290388 -12.422664 -6.152467 4.054263 -4.115280 -1.115634 17.254543 -20.539535 -21.252556 121.198216 -74.909645 -70.805172 11.922987 -17.877677 -41.441067 -7.701148 -4.834936 -4.461127 -1.274746 -9.973439 -1.836055 36.431613 -42.864139 -70.378561 7.258553 -12.786016 27.556805 2.855471 -43.081635 -0.678475 -11.943105 66.745141 -14.285224 7.061781 24.048549 5.012279 -0.218945 -16.258302 1.530955 -5.817972 -40.422662 2.992146 25.143618 64.740653 22.728604 -16.767627 5.922728 -2.535072 -0.036910 -0.050170 -0.016867
-118.402243 57.943577 102.054363 175.866489 -32.330863 -1.203325 1.644852 21.608908 3.188809 0.149341 2.945520 0.379825 0.249235 4.790221 0.624887 1.291347 18.355087 2.576050 -0.026481 12.545490 -3.241183 1.283546 -12.429249 -6.153540 4.029011 -4.107076 -1.114428 17.261695 -20.547250 -21.244898 121.205213 -74.904898 -70.811166 11.925796 -17.882720 -41.435881 -7.706119 -4.834543 -4.458299 -1.273486 -9.967626 -1.838597 36.444347 -42.853646 -70.400517 7.246497 -12.791760 27.574125 2.863308 -43.080160 -0.678632 -11.923796 66.747813 -14.259409 7.047140 24.047738 5.009384 -0.214058 -16.257466 1.528954 -5.817473 -40.421511 2.994663 25.144561 64.742149 22.732178 -16.769571 5.918341 -2.536515 -0.037408 -0.048956 -0.016992
-118.400224 57.943664 102.054178 175.862887 -32.334097 -1.198586 1.648656 21.608426 3.184327 0.149612 2.946117 0.379544 0.253640 4.791913 0.621947 1.294056 18.360144 2.578097 -0.038197 12.525718 -3.261697 1.274280 -12.442819 -6.159523 4.015640 -4.101129 -1.110500 17.264702 -20.556779 -21.242795 121.207928 -74.905370 -70.816551 11.925607 -17.884539 -41.428363 -7.706620 -4.817322 -4.460327 -1.274221 -9.976605 -1.835999 36.451998 -42.851854 -70.416969 7.244391 -12.797683 27.591316 2.878397 -43.076567 -0.684787 -11.923908 66.748393 -14.252967 7.039105 24.045715 5.007963 -0.208928 -16.255253 1.526947 -5.812147 -40.418277 2.990139 25.140597 64.747866 22.724911 -16.753090 5.912231 -2.526344 -0.043810 -0.047706 -0.020752
-118.396813 57.943825 102.054043 175.861426 -32.340377 -1.202312 1.654003 21.609895 3.187247 0.149759 2.946251 0.379239 0.253868 4.792065 0.621484 1.296675 18.358661 2.571384 -0.040212 12.528369 -3.252775 1.260329 -12.496568 -6.207630 4.008971 -4.092751 -1.098643 17.249447 -20.560662 -21.233517 121.238425 -74.902267 -70.836982 11.924776 -17.886409 -41.420677 -7.706873 -4.799977 -4.453517 -1.266753 -9.975894 -1.840497 36.447400 -42.856828 -70.425458 7.251940 -12.801216 27.598528 2.891168 -43.069656 -0.675944 -11.943604 66.746259 -14.266864 7.027419 24.045437 5.006868 -0.209434 -16.253986 1.529246 -5.819269 -40.412710 3.002181 25.138303 64.750884 22.718309 -16.752961 5.912885 -2.526372 -0.043855 -0.049004 -0.020750
-118.393746 57.943220 102.055217 175.859019 -32.339674 -1.204062 1.659996 21.605299 3.188530 0.148468 2.947790 0.380524 0.253947 4.791994 0.621232 1.298730 18.356253 2.567126 -0.045240 12.519213 -3.258500 1.257124 -12.502482 -6.211282 4.001634 -4.087084 -1.090659 17.238970 -20.558786 -21.227669 121.276068 -74.897672 -70.866229 11.921722 -17.883527 -41.412051 -7.707183 -4.783304 -4.451321 -1.256533 -9.974569 -1.845842 36.440350 -42.863148 -70.434068 7.259988 -12.809378 27.608526 2.893670 -43.071085 -0.670671 -11.887904 66.743731 -14.211002 7.006074 24.060825 5.006930 -0.209052 -16.260741 1.526977 -5.823036 -40.412928 3.008439 25.139848 64.751141 22.717709 -16.745125 5.911037 -2.525578 -0.045851 -0.047746 -0.020888
-118.391817 57.942602 102.056412 175.856297 -32.339946 -1.199907 1.662687 21.603913 3.184733 0.151279 2.944487 0.377785 0.251209 4.795220 0.623811 1.303103 18.352170 2.561946 -0.051765 12.514273 -3.262392 1.248650 -12.513156 -6.218575 3.984843 -4.077050 -1.078552 17.235371 -20.557714 -21.233938 121.334555 -74.900674 -70.916179 11.920925 -17.885692 -41.391430 -7.712868 -4.765766 -4.447294 -1.247342 -9.974192 -1.849156 36.449974 -42.858072 -70.447454 7.258804 -12.811664 27.605643 2.899909 -43.073426 -0.666652 -11.895067 66.740823 -14.222082 7.003850 24.072014 5.010296 -0.202514 -16.267373 1.524885 -5.826721 -40.411074 3.008170 25.123063 64.750110 22.698942 -16.736779 5.911237 -2.526958 -0.049590 -0.046621 -0.022216
-118.390159 57.941949 102.057821 175.857532 -32.339341 -1.198234 1.662698 21.601666 3.181323 0.155000 2.939862 0.373762 0.250390 4.796412 0.625439 1.307774 18.348914 2.557335 -0.058970 12.510293 -3.263330 1.232725 -12.522245 -6.227395 3.966768 -4.065243 -1.062038 17.218587 -20.547105 -21.250949 121.462174 -74.906299 -71.025114 11.925761 -17.883564 -41.394031 -7.722719 -4.748736 -4.438726 -1.243530 -9.977852 -1.848944 36.461857 -42.854315 -70.460577 7.255720 -12.809775 27.616462 2.889411 -43.077471 -0.659529 -11.895564 66.741204 -14.231886 7.008916 24.080232 5.015060 -0.200841 -16.273665 1.521089 -5.827347 -40.411522 3.005035 25.113699 64.747998 22.693964 -16.735138 5.911194 -2.530024 -0.047309 -0.045649 -0.023771
-118.389770 57.941620 102.058794 175.857235 -32.340902 -1.190426 1.667364 21.594229 3.167461 0.152482 2.943080 0.376319 0.251821 4.796135 0.626689 1.308496 18.349792 2.557370 -0.068386 12.496972 -3.286547 1.217039 -12.513836 -6.209689 3.947952 -4.049156 -1.054421 17.227701 -20.556384 -21.257348 121.502434 -74.906806 -71.060302 11.929894 -17.876351 -41.396085 -7.732284 -4.733697 -4.438813 -1.216833 -9.973352 -1.851085 36.462821 -42.861848 -70.484386 7.260637 -12.804284 27.621899 2.856277 -43.078568 -0.642448 -11.869650 66.742957 -14.234969 7.011857 24.084644 5.019306 -0.200662 -16.277601 1.516904 -5.821525 -40.410100 2.994621 25.107511 64.744772 22.687749 -16.737956 5.914381 -2.527641 -0.043602 -0.047578 -0.025624
-118.388049 57.941756 102.059377 175.853336 -32.344889 -1.191064 1.675912 21.593295 3.167920 0.153346 2.943030 0.375773 0.256734 4.789646 0.618290 1.308722 18.354217 2.565519 -0.073942 12.499516 -3.287613 1.199364 -12.512300 -6.207306 3.929809 -4.036822 -1.047613 17.235638 -20.562917 -21.259351 121.515335 -74.908911 -71.069271 11.936054 -17.876202 -41.397500 -7.745271 -4.714677 -4.439638 -1.195491 -9.973045 -1.849739 36.479319 -42.858260 -70.516756 7.248260 -12.796229 27.630763 2.839987 -43.075218 -0.628077 -11.879157 66.740596 -14.248818 7.018389 24.086894 5.013848 -0.204156 -16.278392 1.517009 -5.820006 -40.405899 2.996394 25.110594 64.747133 22.691636 -16.727817 5.909686 -2.525498 -0.051720 -0.046045 -0.025653
-118.387308 57.942479 102.059089 175.850957 -32.352493 -1.188621 1.683500 21.595443 3.165666 0.152576 2.945016 0.376782 0.253161 4.792061 0.619675 1.316019 18.353458 2.558342 -0.079932 12.500212 -3.278999 1.184960 -12.509099 -6.207789 3.914722 -4.033015 -1.037935 17.237355 -20.562718 -21.268767 121.548210 -74.914075 -71.098556 11.939811 -17.877389 -41.401602 -7.759435 -4.702738 -4.433272 -1.179124 -9.968855 -1.854224 36.482535 -42.866898 -70.532177 7.266898 -12.800860 27.637559 2.802346 -43.064867 -0.603024 -11.885031 66.734795 -14.278778 7.037068 24.083435 5.014578 -0.208364 -16.275973 1.515879 -5.816812 -40.398243 2.993198 25.113352 64.746408 22.694919 -16.727349 5.910753 -2.525965 -0.054510 -0.047702 -0.024962
